<svg width="262" height="82" viewBox="0 0 262 82" fill="none" xmlns="http://www.w3.org/2000/svg">
<path d="M34.6641 18.1643C29.0273 18.1643 23.5171 19.8358 18.8303 22.9674C14.1435 26.099 10.4906 30.5501 8.33349 35.7578C6.1764 40.9655 5.612 46.6959 6.71168 52.2244C7.81136 57.7528 10.5257 62.8311 14.5115 66.8169C18.4973 70.8026 23.5755 73.517 29.104 74.6167C34.6324 75.7164 40.3629 75.152 45.5705 72.9949C50.7782 70.8378 55.2293 67.1849 58.3609 62.4981C61.4926 57.8113 63.1641 52.3011 63.1641 46.6643L34.6641 46.6643L34.6641 18.1643Z" fill="#FFDC60"/>
<path d="M69.2778 40.5823C69.2778 32.9716 66.2545 25.6727 60.873 20.2912C55.4915 14.9097 48.1925 11.8864 40.5819 11.8864L40.5819 40.5823H69.2778Z" fill="#5956E8"/>
<path d="M91.152 50.288C89.824 50.288 88.592 50.072 87.456 49.64C86.336 49.208 85.36 48.6 84.528 47.816C83.712 47.032 83.072 46.112 82.608 45.056C82.16 44 81.936 42.848 81.936 41.6C81.936 40.352 82.16 39.2 82.608 38.144C83.072 37.088 83.72 36.168 84.552 35.384C85.384 34.6 86.36 33.992 87.48 33.56C88.6 33.128 89.816 32.912 91.128 32.912C92.456 32.912 93.672 33.128 94.776 33.56C95.896 33.992 96.864 34.6 97.68 35.384C98.512 36.168 99.16 37.088 99.624 38.144C100.088 39.184 100.32 40.336 100.32 41.6C100.32 42.848 100.088 44.008 99.624 45.08C99.16 46.136 98.512 47.056 97.68 47.84C96.864 48.608 95.896 49.208 94.776 49.64C93.672 50.072 92.464 50.288 91.152 50.288ZM91.128 46.976C91.88 46.976 92.568 46.848 93.192 46.592C93.832 46.336 94.392 45.968 94.872 45.488C95.352 45.008 95.72 44.44 95.976 43.784C96.248 43.128 96.384 42.4 96.384 41.6C96.384 40.8 96.248 40.072 95.976 39.416C95.72 38.76 95.352 38.192 94.872 37.712C94.408 37.232 93.856 36.864 93.216 36.608C92.576 36.352 91.88 36.224 91.128 36.224C90.376 36.224 89.68 36.352 89.04 36.608C88.416 36.864 87.864 37.232 87.384 37.712C86.904 38.192 86.528 38.76 86.256 39.416C86 40.072 85.872 40.8 85.872 41.6C85.872 42.384 86 43.112 86.256 43.784C86.528 44.44 86.896 45.008 87.36 45.488C87.84 45.968 88.4 46.336 89.04 46.592C89.68 46.848 90.376 46.976 91.128 46.976ZM103.342 50V33.2H106.558L116.47 45.296H114.91V33.2H118.75V50H115.558L105.622 37.904H107.182V50H103.342ZM122.825 50V33.2H126.713V46.832H135.137V50H122.825ZM137.409 50V33.2H141.297V50H137.409ZM145.384 50V33.2H148.6L158.512 45.296H156.952V33.2H160.792V50H157.6L147.664 37.904H149.224V50H145.384ZM168.443 39.968H176.531V42.992H168.443V39.968ZM168.731 46.88H177.875V50H164.867V33.2H177.563V36.32H168.731V46.88ZM185.078 50.192C183.974 50.192 182.91 50.064 181.886 49.808C180.878 49.536 180.078 49.2 179.486 48.8L180.734 46.112C181.326 46.48 182.022 46.784 182.822 47.024C183.638 47.248 184.438 47.36 185.222 47.36C186.086 47.36 186.694 47.256 187.046 47.048C187.414 46.84 187.598 46.552 187.598 46.184C187.598 45.88 187.454 45.656 187.166 45.512C186.894 45.352 186.526 45.232 186.062 45.152C185.598 45.072 185.086 44.992 184.526 44.912C183.982 44.832 183.43 44.728 182.87 44.6C182.31 44.456 181.798 44.248 181.334 43.976C180.87 43.704 180.494 43.336 180.206 42.872C179.934 42.408 179.798 41.808 179.798 41.072C179.798 40.256 180.03 39.536 180.494 38.912C180.974 38.288 181.662 37.8 182.558 37.448C183.454 37.08 184.526 36.896 185.774 36.896C186.654 36.896 187.55 36.992 188.462 37.184C189.374 37.376 190.134 37.656 190.742 38.024L189.494 40.688C188.87 40.32 188.238 40.072 187.598 39.944C186.974 39.8 186.366 39.728 185.774 39.728C184.942 39.728 184.334 39.84 183.95 40.064C183.566 40.288 183.374 40.576 183.374 40.928C183.374 41.248 183.51 41.488 183.782 41.648C184.07 41.808 184.446 41.936 184.91 42.032C185.374 42.128 185.878 42.216 186.422 42.296C186.982 42.36 187.542 42.464 188.102 42.608C188.662 42.752 189.166 42.96 189.614 43.232C190.078 43.488 190.454 43.848 190.742 44.312C191.03 44.76 191.174 45.352 191.174 46.088C191.174 46.888 190.934 47.6 190.454 48.224C189.974 48.832 189.278 49.312 188.366 49.664C187.47 50.016 186.374 50.192 185.078 50.192ZM199.824 50.192C198.432 50.192 197.192 49.912 196.104 49.352C195.016 48.776 194.16 47.984 193.536 46.976C192.928 45.968 192.624 44.824 192.624 43.544C192.624 42.248 192.928 41.104 193.536 40.112C194.16 39.104 195.016 38.32 196.104 37.76C197.192 37.184 198.432 36.896 199.824 36.896C201.184 36.896 202.368 37.184 203.376 37.76C204.384 38.32 205.128 39.128 205.608 40.184L202.704 41.744C202.368 41.136 201.944 40.688 201.432 40.4C200.936 40.112 200.392 39.968 199.8 39.968C199.16 39.968 198.584 40.112 198.072 40.4C197.56 40.688 197.152 41.096 196.848 41.624C196.56 42.152 196.416 42.792 196.416 43.544C196.416 44.296 196.56 44.936 196.848 45.464C197.152 45.992 197.56 46.4 198.072 46.688C198.584 46.976 199.16 47.12 199.8 47.12C200.392 47.12 200.936 46.984 201.432 46.712C201.944 46.424 202.368 45.968 202.704 45.344L205.608 46.928C205.128 47.968 204.384 48.776 203.376 49.352C202.368 49.912 201.184 50.192 199.824 50.192ZM215.642 36.896C216.666 36.896 217.578 37.104 218.378 37.52C219.194 37.92 219.834 38.544 220.298 39.392C220.762 40.224 220.994 41.296 220.994 42.608V50H217.25V43.184C217.25 42.144 217.018 41.376 216.554 40.88C216.106 40.384 215.466 40.136 214.634 40.136C214.042 40.136 213.506 40.264 213.026 40.52C212.562 40.76 212.194 41.136 211.922 41.648C211.666 42.16 211.538 42.816 211.538 43.616V50H207.794V32.192H211.538V40.664L210.698 39.584C211.162 38.72 211.826 38.056 212.69 37.592C213.554 37.128 214.538 36.896 215.642 36.896ZM230.725 50.192C229.349 50.192 228.125 49.904 227.053 49.328C225.997 48.752 225.157 47.968 224.533 46.976C223.925 45.968 223.621 44.824 223.621 43.544C223.621 42.248 223.925 41.104 224.533 40.112C225.157 39.104 225.997 38.32 227.053 37.76C228.125 37.184 229.349 36.896 230.725 36.896C232.085 36.896 233.301 37.184 234.373 37.76C235.445 38.32 236.285 39.096 236.893 40.088C237.501 41.08 237.805 42.232 237.805 43.544C237.805 44.824 237.501 45.968 236.893 46.976C236.285 47.968 235.445 48.752 234.373 49.328C233.301 49.904 232.085 50.192 230.725 50.192ZM230.725 47.12C231.349 47.12 231.909 46.976 232.405 46.688C232.901 46.4 233.293 45.992 233.581 45.464C233.869 44.92 234.013 44.28 234.013 43.544C234.013 42.792 233.869 42.152 233.581 41.624C233.293 41.096 232.901 40.688 232.405 40.4C231.909 40.112 231.349 39.968 230.725 39.968C230.101 39.968 229.541 40.112 229.045 40.4C228.549 40.688 228.149 41.096 227.845 41.624C227.557 42.152 227.413 42.792 227.413 43.544C227.413 44.28 227.557 44.92 227.845 45.464C228.149 45.992 228.549 46.4 229.045 46.688C229.541 46.976 230.101 47.12 230.725 47.12ZM246.552 50.192C245.176 50.192 243.952 49.904 242.88 49.328C241.824 48.752 240.984 47.968 240.36 46.976C239.752 45.968 239.448 44.824 239.448 43.544C239.448 42.248 239.752 41.104 240.36 40.112C240.984 39.104 241.824 38.32 242.88 37.76C243.952 37.184 245.176 36.896 246.552 36.896C247.912 36.896 249.128 37.184 250.2 37.76C251.272 38.32 252.112 39.096 252.72 40.088C253.328 41.08 253.632 42.232 253.632 43.544C253.632 44.824 253.328 45.968 252.72 46.976C252.112 47.968 251.272 48.752 250.2 49.328C249.128 49.904 247.912 50.192 246.552 50.192ZM246.552 47.12C247.176 47.12 247.736 46.976 248.232 46.688C248.728 46.4 249.12 45.992 249.408 45.464C249.696 44.92 249.84 44.28 249.84 43.544C249.84 42.792 249.696 42.152 249.408 41.624C249.12 41.096 248.728 40.688 248.232 40.4C247.736 40.112 247.176 39.968 246.552 39.968C245.928 39.968 245.368 40.112 244.872 40.4C244.376 40.688 243.976 41.096 243.672 41.624C243.384 42.152 243.24 42.792 243.24 43.544C243.24 44.28 243.384 44.92 243.672 45.464C243.976 45.992 244.376 46.4 244.872 46.688C245.368 46.976 245.928 47.12 246.552 47.12ZM256.234 50V32.192H259.978V50H256.234Z" fill="#252B42"/>
</svg>
